<svg width="130" height="130" viewBox="0 0 130 130" fill="none" xmlns="http://www.w3.org/2000/svg">
<circle cx="65" cy="65" r="63.5" fill="#06A956" stroke="#00FF7D" stroke-width="3"/>
<path d="M91.1818 85.2222H97V91H33V85.2222H38.8182V41.8889C38.8182 41.1227 39.1247 40.3879 39.6702 39.8461C40.2158 39.3044 40.9557 39 41.7273 39H70.8182C71.5897 39 72.3297 39.3044 72.8752 39.8461C73.4208 40.3879 73.7273 41.1227 73.7273 41.8889V85.2222H79.5455V56.3333H88.2727C89.0443 56.3333 89.7842 56.6377 90.3298 57.1795C90.8753 57.7212 91.1818 58.456 91.1818 59.2222V85.2222ZM50.4545 62.1111V67.8889H62.0909V62.1111H50.4545ZM50.4545 50.5556V56.3333H62.0909V50.5556H50.4545Z" fill="#F2F9F9"/>
</svg>
