<svg width="130" height="130" viewBox="0 0 130 130" fill="none" xmlns="http://www.w3.org/2000/svg">
<circle cx="65" cy="65" r="63.5" fill="#06A956" stroke="#00FF7D" stroke-width="3"/>
<path d="M58.1151 104C57.1905 103.592 56.8844 102.899 56.9886 101.894C57.8834 93.3067 58.7506 84.7177 59.6263 76.1286C60.1428 71.0679 60.6593 66.0071 61.1736 60.9443C61.1928 60.7657 61.2268 60.5808 61.2034 60.4065C61.1758 60.1961 61.0971 59.992 61.0397 59.7859C60.8527 59.839 60.6465 59.856 60.4829 59.9495C58.944 60.8274 57.4116 61.7179 55.877 62.6042C51.762 64.9805 47.645 67.3526 43.5343 69.7331C42.935 70.0795 42.3292 70.4217 41.6894 69.8989C41.0773 69.3973 40.8307 68.6618 41.1219 67.9541C41.5343 66.9487 41.9636 65.8796 42.6586 65.0719C46.07 61.1143 50.1254 57.9537 54.8674 55.7283C55.6665 55.3543 56.5635 55.1906 57.3393 54.9525C57.4307 53.8345 57.4073 52.674 57.6432 51.5667C58.0705 49.5581 59.282 48.0469 61.0567 47.0245C61.5159 46.761 61.6859 46.4846 61.6859 45.9512C61.6668 39.6002 61.6753 33.2493 61.6689 26.9005C61.6689 26.1821 61.6816 25.468 62.4659 25.1406C63.2566 24.8133 64.0303 25.0832 64.4894 25.6826C65.1823 26.5838 65.888 27.5615 66.2408 28.6222C67.8583 33.4959 68.5873 38.5056 68.141 43.6493C68.0984 44.1317 67.9815 44.6121 67.8561 45.0818C67.7371 45.5218 67.5586 45.9469 67.4502 46.2593C68.4194 47.0245 69.4375 47.6813 70.2707 48.5209C71.512 49.7685 72.0773 51.3754 72.1326 53.1289C72.1496 53.656 72.3175 53.9366 72.7787 54.2001C78.4176 57.4308 84.0395 60.6871 89.6678 63.9327C90.3054 64.3004 90.9813 64.6681 90.8198 65.5565C90.6646 66.4131 90.01 66.8361 89.232 67.0592C87.6592 67.512 86.1055 67.1698 84.59 66.7914C80.5559 65.7818 76.7449 64.209 73.1932 62.0346C71.8457 61.2099 70.6235 60.2428 69.8073 58.8464C69.3759 59.1482 68.9316 59.382 68.6001 59.7221C68.4109 59.9155 68.3067 60.296 68.3322 60.5787C68.5831 63.2653 68.8679 65.9476 69.1442 68.6321C69.6373 73.4378 70.1283 78.2435 70.6193 83.0492C71.1634 88.365 71.7075 93.6829 72.2516 98.9988C72.3579 100.047 72.479 101.094 72.5726 102.142C72.6555 103.056 72.2112 103.654 71.3887 104H58.1215H58.1151Z" fill="#F2F9F9"/>
</svg>
