<svg width="130" height="130" viewBox="0 0 130 130" fill="none" xmlns="http://www.w3.org/2000/svg">
<circle cx="65" cy="65" r="63.5" fill="#06A956" stroke="#00FF7D" stroke-width="3"/>
<path d="M75.4219 33C75.4219 34.0709 75.4219 35.05 75.4219 36.0273C75.4219 36.9596 75.8393 37.4894 76.5581 37.4801C77.2545 37.4707 77.6606 36.9615 77.6663 36.0685C77.6719 35.0706 77.6663 34.0727 77.6663 33.0112C79.263 33.0112 80.7791 32.9775 82.2916 33.0281C82.9018 33.0487 83.2144 33.5036 83.2893 34.1121C83.8565 38.8018 84.1148 43.5084 83.9519 48.2318C83.7236 54.8386 82.7558 61.3331 80.7492 67.6479C77.2526 78.6486 71.3525 88.0823 62.4032 95.5073C61.4692 96.2805 60.4471 96.947 59.4738 97.6734C58.9534 98.0609 58.4405 98.0909 57.8359 97.8306C47.5332 93.4105 37.2268 89.0016 26.9186 84.5983C26.3795 84.368 25.9733 84.0497 26.0014 83.4207C26.0294 82.758 26.4824 82.4921 27.0721 82.303C37.8296 78.8732 47.5145 73.5844 55.6533 65.6877C61.9053 59.6219 66.3154 52.4423 68.4568 43.9483C69.2411 40.8349 69.6585 37.6729 69.7951 34.4696C69.8419 33.352 70.1845 33.0075 71.2851 33.0037C72.6385 33 73.9918 33.0037 75.4257 33.0037L75.4219 33ZM74.1622 57.557C73.9825 57.3136 73.8177 56.9298 73.5257 56.722C72.923 56.2895 72.2136 56.6265 71.8766 57.4315C71.1223 59.2382 70.4784 61.1009 69.5874 62.8383C68.2902 65.3676 66.8245 67.8107 65.4113 70.2801C64.9733 71.0458 65.007 71.6823 65.5797 72.0661C66.1619 72.4555 66.7964 72.2589 67.285 71.5232C70.0291 67.3801 72.2473 62.9712 73.9413 58.3021C74.0124 58.1055 74.0611 57.9014 74.1622 57.557ZM49.4987 89.1925C49.9011 88.981 50.2081 88.8668 50.4627 88.6796C51.6644 87.7903 52.9017 86.9403 54.0323 85.9687C55.9098 84.3568 57.718 82.6662 59.5524 81.0038C59.9305 80.6611 60.1495 80.1987 59.8837 79.755C59.6928 79.4349 59.2866 79.0661 58.9609 79.0492C58.5884 79.0305 58.1167 79.2982 57.8284 79.5828C55.1404 82.2263 52.2784 84.6563 49.2029 86.8374C49.0326 86.9572 48.7855 87.0751 48.7368 87.2418C48.6283 87.6181 48.4879 88.0749 48.6133 88.4006C48.7387 88.7226 49.1786 88.9248 49.4987 89.1944V89.1925ZM77.509 42.7033C77.5689 41.4228 77.2245 40.9192 76.5506 40.8518C75.845 40.7806 75.3826 41.2562 75.2815 42.1136C75.1187 43.4784 74.9352 44.8395 74.7649 46.2024C74.6788 46.8857 75.0644 47.4492 75.6802 47.5616C76.2923 47.672 76.8651 47.2676 76.9718 46.5787C77.1908 45.1521 77.3705 43.7199 77.5109 42.7052L77.509 42.7033Z" fill="#F2F9F9"/>
</svg>
