<svg width="13" height="23" viewBox="0 0 13 23" fill="none" xmlns="http://www.w3.org/2000/svg">
<path d="M10.5625 0C11.209 0 11.829 0.272611 12.2861 0.757861C12.7432 1.24311 13 1.90125 13 2.5875V20.4125C13 21.0987 12.7432 21.7569 12.2861 22.2421C11.829 22.7274 11.209 23 10.5625 23H2.4375C1.79103 23 1.17105 22.7274 0.713927 22.2421C0.256808 21.7569 0 21.0987 0 20.4125V2.5875C0 1.90125 0.256808 1.24311 0.713927 0.757861C1.17105 0.272611 1.79103 0 2.4375 0H10.5625ZM10.5625 1.725H2.4375C2.22201 1.725 2.01535 1.81587 1.86298 1.97762C1.7106 2.13937 1.625 2.35875 1.625 2.5875V20.4125C1.625 20.8886 1.989 21.275 2.4375 21.275H10.5625C10.778 21.275 10.9847 21.1841 11.137 21.0224C11.2894 20.8606 11.375 20.6412 11.375 20.4125V2.5875C11.375 2.35875 11.2894 2.13937 11.137 1.97762C10.9847 1.81587 10.778 1.725 10.5625 1.725ZM7.85308 17.825C8.06857 17.8247 8.27535 17.9153 8.42793 18.0768C8.5805 18.2383 8.66638 18.4576 8.66667 18.6863C8.66695 18.9151 8.58163 19.1346 8.42946 19.2966C8.27729 19.4585 8.07074 19.5497 7.85525 19.55L5.14692 19.5546C4.93143 19.5549 4.72465 19.4643 4.57208 19.3028C4.4195 19.1413 4.33362 18.922 4.33333 18.6932C4.33305 18.4645 4.41837 18.245 4.57054 18.083C4.72271 17.9211 4.92926 17.8299 5.14475 17.8296L7.85308 17.825Z" fill="#06A956"/>
</svg>
