<svg width="20" height="20" viewBox="0 0 20 20" fill="none" xmlns="http://www.w3.org/2000/svg">
<path fill-rule="evenodd" clip-rule="evenodd" d="M6.78588 1.33133C7.63832 0.478895 8.79447 0 10 0C11.2055 0 12.3617 0.478895 13.2141 1.33133C14.0666 2.18377 14.5455 3.33992 14.5455 4.54545C14.5455 5.75098 14.0666 6.90714 13.2141 7.75958C12.3617 8.61201 11.2055 9.09091 10 9.09091C8.79447 9.09091 7.63832 8.61201 6.78588 7.75958C5.93344 6.90714 5.45455 5.75098 5.45455 4.54545C5.45455 3.33992 5.93344 2.18377 6.78588 1.33133ZM10 1.81818C9.27668 1.81818 8.58299 2.10552 8.07153 2.61698C7.56006 3.12844 7.27273 3.82214 7.27273 4.54545C7.27273 5.26877 7.56006 5.96247 8.07153 6.47393C8.58299 6.98539 9.27668 7.27273 10 7.27273C10.7233 7.27273 11.417 6.98539 11.9285 6.47393C12.4399 5.96247 12.7273 5.26877 12.7273 4.54545C12.7273 3.82214 12.4399 3.12844 11.9285 2.61698C11.417 2.10552 10.7233 1.81818 10 1.81818Z" fill="#06A956"/>
<path fill-rule="evenodd" clip-rule="evenodd" d="M10 7.27273C10.5021 7.27273 10.9091 7.67974 10.9091 8.18182V16.3636C10.9091 16.8657 10.5021 17.2727 10 17.2727C9.49792 17.2727 9.09091 16.8657 9.09091 16.3636V8.18182C9.09091 7.67974 9.49792 7.27273 10 7.27273ZM3.78905 13.1321C3.95765 12.8792 4.2415 12.7273 4.54545 12.7273H6.36364C6.86571 12.7273 7.27273 13.1343 7.27273 13.6364C7.27273 14.1384 6.86571 14.5455 6.36364 14.5455H5.03199L2.60774 18.1818H17.3923L14.968 14.5455H13.6364C13.1343 14.5455 12.7273 14.1384 12.7273 13.6364C12.7273 13.1343 13.1343 12.7273 13.6364 12.7273H15.4545C15.7585 12.7273 16.0423 12.8792 16.211 13.1321L19.8473 18.5866C20.0333 18.8656 20.0506 19.2243 19.8924 19.5199C19.7342 19.8155 19.4262 20 19.0909 20H0.909092C0.573824 20 0.265769 19.8155 0.10757 19.5199C-0.0506292 19.2243 -0.0332905 18.8656 0.152683 18.5866L3.78905 13.1321Z" fill="#06A956"/>
</svg>
