<svg width="133" height="32" viewBox="0 0 133 32" fill="none" xmlns="http://www.w3.org/2000/svg">
<path d="M44.688 13L39.856 1.8H42.656L46.88 11.72H45.232L49.52 1.8H52.096L47.248 13H44.688ZM56.3105 13.128C55.3932 13.128 54.5772 12.936 53.8625 12.552C53.1585 12.168 52.5985 11.6453 52.1825 10.984C51.7772 10.312 51.5745 9.54933 51.5745 8.696C51.5745 7.832 51.7772 7.06933 52.1825 6.408C52.5985 5.736 53.1585 5.21333 53.8625 4.84C54.5772 4.456 55.3932 4.264 56.3105 4.264C57.2172 4.264 58.0278 4.456 58.7425 4.84C59.4572 5.21333 60.0172 5.73067 60.4225 6.392C60.8278 7.05333 61.0305 7.82133 61.0305 8.696C61.0305 9.54933 60.8278 10.312 60.4225 10.984C60.0172 11.6453 59.4572 12.168 58.7425 12.552C58.0278 12.936 57.2172 13.128 56.3105 13.128ZM56.3105 11.08C56.7265 11.08 57.0998 10.984 57.4305 10.792C57.7612 10.6 58.0225 10.328 58.2145 9.976C58.4065 9.61333 58.5025 9.18667 58.5025 8.696C58.5025 8.19467 58.4065 7.768 58.2145 7.416C58.0225 7.064 57.7612 6.792 57.4305 6.6C57.0998 6.408 56.7265 6.312 56.3105 6.312C55.8945 6.312 55.5212 6.408 55.1905 6.6C54.8598 6.792 54.5932 7.064 54.3905 7.416C54.1985 7.768 54.1025 8.19467 54.1025 8.696C54.1025 9.18667 54.1985 9.61333 54.3905 9.976C54.5932 10.328 54.8598 10.6 55.1905 10.792C55.5212 10.984 55.8945 11.08 56.3105 11.08ZM62.6989 13V1.128H65.1949V13H62.6989ZM71.672 13.128C70.6587 13.128 69.8693 12.872 69.304 12.36C68.7387 11.8373 68.456 11.064 68.456 10.04V2.488H70.952V10.008C70.952 10.3707 71.048 10.6533 71.24 10.856C71.432 11.048 71.6933 11.144 72.024 11.144C72.4187 11.144 72.7547 11.0373 73.032 10.824L73.704 12.584C73.448 12.7653 73.1387 12.904 72.776 13C72.424 13.0853 72.056 13.128 71.672 13.128ZM67.128 6.504V4.584H73.096V6.504H67.128ZM80.3851 13V11.32L80.2251 10.952V7.944C80.2251 7.41067 80.0598 6.99467 79.7291 6.696C79.4091 6.39733 78.9131 6.248 78.2411 6.248C77.7825 6.248 77.3291 6.32267 76.8811 6.472C76.4438 6.61067 76.0705 6.80267 75.7611 7.048L74.8651 5.304C75.3345 4.97333 75.8998 4.71733 76.5611 4.536C77.2225 4.35467 77.8945 4.264 78.5771 4.264C79.8891 4.264 80.9078 4.57333 81.6331 5.192C82.3585 5.81067 82.7211 6.776 82.7211 8.088V13H80.3851ZM77.7611 13.128C77.0891 13.128 76.5131 13.016 76.0331 12.792C75.5531 12.5573 75.1851 12.2427 74.9291 11.848C74.6731 11.4533 74.5451 11.0107 74.5451 10.52C74.5451 10.008 74.6678 9.56 74.9131 9.176C75.1691 8.792 75.5691 8.49333 76.1131 8.28C76.6571 8.056 77.3665 7.944 78.2411 7.944H80.5291V9.4H78.5131C77.9265 9.4 77.5211 9.496 77.2971 9.688C77.0838 9.88 76.9771 10.12 76.9771 10.408C76.9771 10.728 77.0998 10.984 77.3451 11.176C77.6011 11.3573 77.9478 11.448 78.3851 11.448C78.8011 11.448 79.1745 11.352 79.5051 11.16C79.8358 10.9573 80.0758 10.664 80.2251 10.28L80.6091 11.432C80.4278 11.9867 80.0971 12.408 79.6171 12.696C79.1371 12.984 78.5185 13.128 77.7611 13.128ZM84.9801 13V4.392H87.3641V6.824L87.0281 6.12C87.2841 5.512 87.6948 5.05333 88.2601 4.744C88.8255 4.424 89.5135 4.264 90.3241 4.264V6.568C90.2175 6.55733 90.1215 6.552 90.0361 6.552C89.9508 6.54133 89.8601 6.536 89.7641 6.536C89.0815 6.536 88.5268 6.73333 88.1001 7.128C87.6841 7.512 87.4761 8.11467 87.4761 8.936V13H84.9801ZM101.49 13.128C100.765 13.128 100.13 12.968 99.586 12.648C99.042 12.328 98.6153 11.8427 98.306 11.192C98.0073 10.5307 97.858 9.69867 97.858 8.696C97.858 7.68267 98.002 6.85067 98.29 6.2C98.578 5.54933 98.994 5.064 99.538 4.744C100.082 4.424 100.733 4.264 101.49 4.264C102.301 4.264 103.026 4.45067 103.666 4.824C104.317 5.18667 104.829 5.69867 105.202 6.36C105.586 7.02133 105.778 7.8 105.778 8.696C105.778 9.60267 105.586 10.3867 105.202 11.048C104.829 11.7093 104.317 12.2213 103.666 12.584C103.026 12.9467 102.301 13.128 101.49 13.128ZM96.402 16.104V4.392H98.786V6.152L98.738 8.712L98.898 11.256V16.104H96.402ZM101.058 11.08C101.474 11.08 101.842 10.984 102.162 10.792C102.493 10.6 102.754 10.328 102.946 9.976C103.149 9.61333 103.25 9.18667 103.25 8.696C103.25 8.19467 103.149 7.768 102.946 7.416C102.754 7.064 102.493 6.792 102.162 6.6C101.842 6.408 101.474 6.312 101.058 6.312C100.642 6.312 100.269 6.408 99.938 6.6C99.6073 6.792 99.346 7.064 99.154 7.416C98.962 7.768 98.866 8.19467 98.866 8.696C98.866 9.18667 98.962 9.61333 99.154 9.976C99.346 10.328 99.6073 10.6 99.938 10.792C100.269 10.984 100.642 11.08 101.058 11.08ZM112.588 13V11.32L112.428 10.952V7.944C112.428 7.41067 112.263 6.99467 111.932 6.696C111.612 6.39733 111.116 6.248 110.444 6.248C109.986 6.248 109.532 6.32267 109.084 6.472C108.647 6.61067 108.274 6.80267 107.964 7.048L107.068 5.304C107.538 4.97333 108.103 4.71733 108.764 4.536C109.426 4.35467 110.098 4.264 110.78 4.264C112.092 4.264 113.111 4.57333 113.836 5.192C114.562 5.81067 114.924 6.776 114.924 8.088V13H112.588ZM109.964 13.128C109.292 13.128 108.716 13.016 108.236 12.792C107.756 12.5573 107.388 12.2427 107.132 11.848C106.876 11.4533 106.748 11.0107 106.748 10.52C106.748 10.008 106.871 9.56 107.116 9.176C107.372 8.792 107.772 8.49333 108.316 8.28C108.86 8.056 109.57 7.944 110.444 7.944H112.732V9.4H110.716C110.13 9.4 109.724 9.496 109.5 9.688C109.287 9.88 109.18 10.12 109.18 10.408C109.18 10.728 109.303 10.984 109.548 11.176C109.804 11.3573 110.151 11.448 110.588 11.448C111.004 11.448 111.378 11.352 111.708 11.16C112.039 10.9573 112.279 10.664 112.428 10.28L112.812 11.432C112.631 11.9867 112.3 12.408 111.82 12.696C111.34 12.984 110.722 13.128 109.964 13.128ZM117.183 13V4.392H119.567V6.824L119.231 6.12C119.487 5.512 119.898 5.05333 120.463 4.744C121.029 4.424 121.717 4.264 122.527 4.264V6.568C122.421 6.55733 122.325 6.552 122.239 6.552C122.154 6.54133 122.063 6.536 121.967 6.536C121.285 6.536 120.73 6.73333 120.303 7.128C119.887 7.512 119.679 8.11467 119.679 8.936V13H117.183ZM128.729 13V11.32L128.569 10.952V7.944C128.569 7.41067 128.404 6.99467 128.073 6.696C127.753 6.39733 127.257 6.248 126.585 6.248C126.126 6.248 125.673 6.32267 125.225 6.472C124.788 6.61067 124.414 6.80267 124.105 7.048L123.209 5.304C123.678 4.97333 124.244 4.71733 124.905 4.536C125.566 4.35467 126.238 4.264 126.921 4.264C128.233 4.264 129.252 4.57333 129.977 5.192C130.702 5.81067 131.065 6.776 131.065 8.088V13H128.729ZM126.105 13.128C125.433 13.128 124.857 13.016 124.377 12.792C123.897 12.5573 123.529 12.2427 123.273 11.848C123.017 11.4533 122.889 11.0107 122.889 10.52C122.889 10.008 123.012 9.56 123.257 9.176C123.513 8.792 123.913 8.49333 124.457 8.28C125.001 8.056 125.71 7.944 126.585 7.944H128.873V9.4H126.857C126.27 9.4 125.865 9.496 125.641 9.688C125.428 9.88 125.321 10.12 125.321 10.408C125.321 10.728 125.444 10.984 125.689 11.176C125.945 11.3573 126.292 11.448 126.729 11.448C127.145 11.448 127.518 11.352 127.849 11.16C128.18 10.9573 128.42 10.664 128.569 10.28L128.953 11.432C128.772 11.9867 128.441 12.408 127.961 12.696C127.481 12.984 126.862 13.128 126.105 13.128ZM45.248 28.128C44.3307 28.128 43.5147 27.936 42.8 27.552C42.096 27.168 41.536 26.6453 41.12 25.984C40.7147 25.312 40.512 24.5493 40.512 23.696C40.512 22.832 40.7147 22.0693 41.12 21.408C41.536 20.736 42.096 20.2133 42.8 19.84C43.5147 19.456 44.3307 19.264 45.248 19.264C46.1547 19.264 46.9653 19.456 47.68 19.84C48.3947 20.2133 48.9547 20.7307 49.36 21.392C49.7653 22.0533 49.968 22.8213 49.968 23.696C49.968 24.5493 49.7653 25.312 49.36 25.984C48.9547 26.6453 48.3947 27.168 47.68 27.552C46.9653 27.936 46.1547 28.128 45.248 28.128ZM45.248 26.08C45.664 26.08 46.0373 25.984 46.368 25.792C46.6987 25.6 46.96 25.328 47.152 24.976C47.344 24.6133 47.44 24.1867 47.44 23.696C47.44 23.1947 47.344 22.768 47.152 22.416C46.96 22.064 46.6987 21.792 46.368 21.6C46.0373 21.408 45.664 21.312 45.248 21.312C44.832 21.312 44.4587 21.408 44.128 21.6C43.7973 21.792 43.5307 22.064 43.328 22.416C43.136 22.768 43.04 23.1947 43.04 23.696C43.04 24.1867 43.136 24.6133 43.328 24.976C43.5307 25.328 43.7973 25.6 44.128 25.792C44.4587 25.984 44.832 26.08 45.248 26.08ZM59.6876 28.128C58.6743 28.128 57.885 27.872 57.3196 27.36C56.7543 26.8373 56.4716 26.064 56.4716 25.04V17.488H58.9676V25.008C58.9676 25.3707 59.0636 25.6533 59.2556 25.856C59.4476 26.048 59.709 26.144 60.0396 26.144C60.4343 26.144 60.7703 26.0373 61.0476 25.824L61.7196 27.584C61.4636 27.7653 61.1543 27.904 60.7916 28C60.4396 28.0853 60.0716 28.128 59.6876 28.128ZM55.1436 21.504V19.584H61.1116V21.504H55.1436ZM66.9511 28.128C66.0338 28.128 65.2178 27.936 64.5031 27.552C63.7991 27.168 63.2391 26.6453 62.8231 25.984C62.4178 25.312 62.2151 24.5493 62.2151 23.696C62.2151 22.832 62.4178 22.0693 62.8231 21.408C63.2391 20.736 63.7991 20.2133 64.5031 19.84C65.2178 19.456 66.0338 19.264 66.9511 19.264C67.8578 19.264 68.6685 19.456 69.3831 19.84C70.0978 20.2133 70.6578 20.7307 71.0631 21.392C71.4685 22.0533 71.6711 22.8213 71.6711 23.696C71.6711 24.5493 71.4685 25.312 71.0631 25.984C70.6578 26.6453 70.0978 27.168 69.3831 27.552C68.6685 27.936 67.8578 28.128 66.9511 28.128ZM66.9511 26.08C67.3671 26.08 67.7405 25.984 68.0711 25.792C68.4018 25.6 68.6631 25.328 68.8551 24.976C69.0471 24.6133 69.1431 24.1867 69.1431 23.696C69.1431 23.1947 69.0471 22.768 68.8551 22.416C68.6631 22.064 68.4018 21.792 68.0711 21.6C67.7405 21.408 67.3671 21.312 66.9511 21.312C66.5351 21.312 66.1618 21.408 65.8311 21.6C65.5005 21.792 65.2338 22.064 65.0311 22.416C64.8391 22.768 64.7431 23.1947 64.7431 23.696C64.7431 24.1867 64.8391 24.6133 65.0311 24.976C65.2338 25.328 65.5005 25.6 65.8311 25.792C66.1618 25.984 66.5351 26.08 66.9511 26.08ZM78.4275 28.128C77.7022 28.128 77.0675 27.968 76.5235 27.648C75.9795 27.328 75.5528 26.8427 75.2435 26.192C74.9448 25.5307 74.7955 24.6987 74.7955 23.696C74.7955 22.6827 74.9395 21.8507 75.2275 21.2C75.5155 20.5493 75.9315 20.064 76.4755 19.744C77.0195 19.424 77.6702 19.264 78.4275 19.264C79.2382 19.264 79.9635 19.4507 80.6035 19.824C81.2542 20.1867 81.7662 20.6987 82.1395 21.36C82.5235 22.0213 82.7155 22.8 82.7155 23.696C82.7155 24.6027 82.5235 25.3867 82.1395 26.048C81.7662 26.7093 81.2542 27.2213 80.6035 27.584C79.9635 27.9467 79.2382 28.128 78.4275 28.128ZM73.3395 31.104V19.392H75.7235V21.152L75.6755 23.712L75.8355 26.256V31.104H73.3395ZM77.9955 26.08C78.4115 26.08 78.7795 25.984 79.0995 25.792C79.4302 25.6 79.6915 25.328 79.8835 24.976C80.0862 24.6133 80.1875 24.1867 80.1875 23.696C80.1875 23.1947 80.0862 22.768 79.8835 22.416C79.6915 22.064 79.4302 21.792 79.0995 21.6C78.7795 21.408 78.4115 21.312 77.9955 21.312C77.5795 21.312 77.2062 21.408 76.8755 21.6C76.5448 21.792 76.2835 22.064 76.0915 22.416C75.8995 22.768 75.8035 23.1947 75.8035 23.696C75.8035 24.1867 75.8995 24.6133 76.0915 24.976C76.2835 25.328 76.5448 25.6 76.8755 25.792C77.2062 25.984 77.5795 26.08 77.9955 26.08ZM88.4824 28.128C87.565 28.128 86.749 27.936 86.0344 27.552C85.3304 27.168 84.7704 26.6453 84.3544 25.984C83.949 25.312 83.7464 24.5493 83.7464 23.696C83.7464 22.832 83.949 22.0693 84.3544 21.408C84.7704 20.736 85.3304 20.2133 86.0344 19.84C86.749 19.456 87.565 19.264 88.4824 19.264C89.389 19.264 90.1997 19.456 90.9144 19.84C91.629 20.2133 92.189 20.7307 92.5944 21.392C92.9997 22.0533 93.2024 22.8213 93.2024 23.696C93.2024 24.5493 92.9997 25.312 92.5944 25.984C92.189 26.6453 91.629 27.168 90.9144 27.552C90.1997 27.936 89.389 28.128 88.4824 28.128ZM88.4824 26.08C88.8984 26.08 89.2717 25.984 89.6024 25.792C89.933 25.6 90.1944 25.328 90.3864 24.976C90.5784 24.6133 90.6744 24.1867 90.6744 23.696C90.6744 23.1947 90.5784 22.768 90.3864 22.416C90.1944 22.064 89.933 21.792 89.6024 21.6C89.2717 21.408 88.8984 21.312 88.4824 21.312C88.0664 21.312 87.693 21.408 87.3624 21.6C87.0317 21.792 86.765 22.064 86.5624 22.416C86.3704 22.768 86.2744 23.1947 86.2744 23.696C86.2744 24.1867 86.3704 24.6133 86.5624 24.976C86.765 25.328 87.0317 25.6 87.3624 25.792C87.693 25.984 88.0664 26.08 88.4824 26.08Z" fill="#3F4141"/>
<circle cx="15" cy="15" r="14" stroke="#3F4141" stroke-width="2"/>
<path d="M23.0068 18.9897C23.1102 18.8816 23.1923 18.7532 23.2482 18.6118C23.3042 18.4704 23.333 18.3188 23.333 18.1658C23.333 18.0127 23.3042 17.8611 23.2482 17.7197C23.1923 17.5784 23.1102 17.4499 23.0068 17.3418L15.626 9.60527C15.5438 9.51897 15.4462 9.45049 15.3387 9.40377C15.2313 9.35706 15.1161 9.33301 14.9998 9.33301C14.8835 9.33301 14.7683 9.35706 14.6608 9.40377C14.5534 9.45049 14.4558 9.51897 14.3736 9.60527L6.99275 17.3418C6.55754 17.798 6.55754 18.5335 6.99275 18.9897C7.42797 19.4459 8.12964 19.4459 8.56485 18.9897L15.0042 12.2493L21.4436 18.999C21.8699 19.4459 22.5805 19.4459 23.0068 18.9897Z" fill="#3F4141"/>
</svg>
